<?xml version="1.0" encoding="UTF-8" standalone="no"?><!DOCTYPE svg PUBLIC "-//W3C//DTD SVG 1.1//EN" "http://www.w3.org/Graphics/SVG/1.1/DTD/svg11.dtd"><svg width="100%" height="100%" viewBox="0 0 151 51" version="1.1" xmlns="http://www.w3.org/2000/svg" xmlns:xlink="http://www.w3.org/1999/xlink" xml:space="preserve" style="fill-rule:evenodd;clip-rule:evenodd;stroke-linejoin:round;stroke-miterlimit:1.41421;"><g><path d="M9.706,9.774l22.003,0l0,-9.567l-31.57,0l0,49.772l31.57,0l0,-32.301l-22.003,0l0,-7.904Zm0,17.471l12.436,0l0,13.167l-12.436,0l0,-13.167Z" style="fill-rule:nonzero;"/><path d="M76.447,0.207l-9.567,0l0,20.102l-12.436,0l0,-20.102l-9.567,0l0,29.669l22.003,0l0,20.103l9.567,0l0,-49.772Z" style="fill-rule:nonzero;"/><path d="M107.531,37.615l-0.044,0.043l-2.479,-2.479l2.479,-2.523l0.044,0.043l0,-12.366l-18.806,0l0,29.648l18.806,0l0,-12.366Zm-5.699,-11.583l0,6.275l-7.408,0l0,-6.275l7.408,0Zm0,11.974l0,6.276l-7.408,0l0,-6.276l7.408,0Z" style="fill-rule:nonzero;"/><rect x="116.68" y="20.333" width="5.699" height="29.648" style="fill-rule:nonzero;"/><path d="M150.334,26.032l0,-5.699l-18.805,0l0,5.699l6.575,0l0,23.949l5.655,0l0,-23.949l6.575,0Z" style="fill-rule:nonzero;"/></g></svg>