<?xml version="1.0" encoding="UTF-8" standalone="no"?><!DOCTYPE svg PUBLIC "-//W3C//DTD SVG 1.1//EN" "http://www.w3.org/Graphics/SVG/1.1/DTD/svg11.dtd"><svg width="100%" height="100%" viewBox="0 0 1440 502" version="1.1" xmlns="http://www.w3.org/2000/svg" xmlns:xlink="http://www.w3.org/1999/xlink" xml:space="preserve" style="fill-rule:evenodd;clip-rule:evenodd;stroke-linejoin:round;stroke-miterlimit:1.41421;"><g><path d="M251,52.542c52.634,0 103.113,20.909 140.331,58.127l37.153,-37.153c-47.072,-47.071 -110.915,-73.516 -177.484,-73.516c-138.531,0 -251,112.469 -251,251c0,138.531 112.469,251 251,251c66.569,0 130.412,-26.445 177.484,-73.516l-37.153,-37.153c-37.218,37.218 -87.697,58.127 -140.331,58.127c-109.532,0 -109.532,0 0,0" style="fill:#06a1b8;"/><g><path d="M646.494,262.29l138.381,239.71l-276.763,0l138.382,-239.71Z" style="fill:#e0dfd8;"/><path d="M442.423,501.998l171.226,-296.572l16.009,27.725l-155.22,268.849l-32.015,-0.002Z" style="fill:#e0dfd8;"/></g><path d="M1108.68,198.927l-298.665,0l0,303.073l200.5,0l0,-126.293l98,0l0.046,-48.927l-98.06,0l0,-26.169l98,0l0.179,-101.684Z" style="fill:#e0dfd8;"/><path d="M1440,198.927l-298.665,0l0,303.073l298.665,0l0,-101.69l-98.165,0l0,-24.603l98,0l0.046,-48.927l-98.06,0l0,-26.169l98,0l0.179,-101.684Z" style="fill:#e0dfd8;"/></g></svg>