<?xml version="1.0" encoding="UTF-8" standalone="no"?>
<!DOCTYPE svg PUBLIC "-//W3C//DTD SVG 1.1//EN" "http://www.w3.org/Graphics/SVG/1.1/DTD/svg11.dtd">
<svg width="100%" height="100%" viewBox="0 0 550 550" version="1.1" xmlns="http://www.w3.org/2000/svg" xmlns:xlink="http://www.w3.org/1999/xlink" xml:space="preserve" style="fill-rule:evenodd;clip-rule:evenodd;stroke-linejoin:round;stroke-miterlimit:1.41421;">
    <g transform="matrix(1,0,0,1,-1435,-1435)">
        <g id="アートボード2" transform="matrix(1,0,0,1,-130.907,982.116)">
            <rect x="1566.12" y="453.096" width="549.125" height="549.125" style="fill:none;"/>
            <g transform="matrix(0.726453,0,0,0.726453,1656.71,334.647)">
                <path d="M290,342.542C342.634,342.542 393.113,363.451 430.331,400.669L467.484,363.516C420.412,316.445 356.569,290 290,290C151.469,290 39,402.469 39,541C39,679.531 151.469,792 290,792C356.569,792 420.412,765.555 467.484,718.484L430.331,681.331C393.113,718.549 342.634,739.458 290,739.458C180.468,739.458 180.468,739.458 290,739.458" style="fill:rgb(6,161,184);"/>
            </g>
        </g>
    </g>
</svg>
